<?xml version="1.0" encoding="utf-8"?>
<!-- Generator: Adobe Illustrator 24.3.0, SVG Export Plug-In . SVG Version: 6.00 Build 0)  -->
<svg version="1.1" id="Calque_1" xmlns="http://www.w3.org/2000/svg" xmlns:xlink="http://www.w3.org/1999/xlink" x="0px" y="0px"
	 viewBox="0 0 200 200" style="enable-background:new 0 0 200 200;" xml:space="preserve">
<path d="M137.6,101.2c-2.2-17.8-4.3-79-4.3-79l-59,0.5c-3.1,1.7-5.4,71.3-7,79.4c35,4.7,52.7-14.6,58.5-20.3
	c4.2,3.8-30.5,49.2-62,40.8c-0.8,9.7-15.7,51.6-21.1,61c-9.6,18.9-21.3,41.4-35.1,53.1c-8.6,6.6-26,11.4-43.9-0.2
	c-14.4-9.4-16.4-33.1-8.5-34C-49.4,230.8-18,231-6.9,216.4c29.3-43.6,34.3-87.2,34.8-93.7c-34.3-2.5-41.8,1.6-44.9,10.6
	c-3.8,0.6-2.7-19.3,17.9-25c7.2-2,22.2-4,32-6.1c6.5-1.6,5.7-72.5,3.4-80.7c-23.7-2.9-71.7-8.5-69.5,26.7c1.2,10.4,15.3,13,23.3,13
	c-1.7,3.8-22.4,4.8-30.4-2.3c-19.1-19.6-2.6-41.9,4.5-48.4c20.3-15.7,84.6-11,84.6-11l118,0.9c0,0,46.6,3.7,59-5.8
	c14-13,5.9-43.6-22-32.4c0.3-6.2,17.2-6.3,20.3-6c23.9,1,32.1,21.4,20.7,45.5c-16.6,31.3-65.9,14.4-70.3,19.8
	c-10.5,11.8-7.1,52.4-4.7,78.3s18.6,92.4,37,116.5c7.3,8.7,31.2,21.5,42-14.7c2.5,10.5-1.4,27-8.9,34.9c-10.5,10-27.3,10.8-43.5,0
	s-33.8-38-40.7-61.1C147.1,152.3,140.1,119,137.6,101.2z"/>
</svg>
